<svg width="24" height="23" viewBox="0 0 24 23" fill="none" xmlns="http://www.w3.org/2000/svg">
<g id="Fb">
<path id="Vector" fill-rule="evenodd" clip-rule="evenodd" d="M23.9707 11.5761C23.9707 5.62773 18.8214 0.804565 12.4707 0.804565C6.12003 0.804565 0.970703 5.62773 0.970703 11.5761C0.970703 16.9523 5.17539 21.4086 10.6738 22.2174V14.6908H7.75314V11.5761H10.6738V9.20303C10.6738 6.50388 12.3911 5.01173 15.0176 5.01173C16.276 5.01173 17.5923 5.22235 17.5923 5.22235V7.87341H16.1415C14.7137 7.87341 14.2671 8.7034 14.2671 9.55647V11.5761H17.4563L16.947 14.6908H14.2676V22.2184C19.766 21.41 23.9707 16.9538 23.9707 11.5761V11.5761Z" fill="white"/>
</g>
</svg>
