<svg width="36" height="36" viewBox="0 0 36 36" fill="none" xmlns="http://www.w3.org/2000/svg">
<g id="Icon">
<circle id="Ellipse 1" cx="18.3032" cy="18.0068" r="17.312" fill="#085FBA"/>
<g id="Group 1">
<path id="Vector" d="M18.3039 20.8875C19.8955 20.8875 21.1858 19.5972 21.1858 18.0055C21.1858 16.4138 19.8955 15.1235 18.3039 15.1235C16.7122 15.1235 15.4219 16.4138 15.4219 18.0055C15.4219 19.5972 16.7122 20.8875 18.3039 20.8875Z" stroke="white" stroke-linecap="round" stroke-linejoin="round"/>
<path id="Vector_2" d="M22.1293 23.7694C20.8455 24.6218 19.3137 25.021 17.7771 24.9038C16.2405 24.7865 14.7871 24.1594 13.6475 23.1221C12.5079 22.0847 11.7473 20.6965 11.4865 19.1777C11.2257 17.6588 11.4796 16.0964 12.2079 14.7383C12.9361 13.3802 14.0971 12.3042 15.5066 11.6811C16.916 11.0579 18.4932 10.9233 19.9879 11.2986C21.4825 11.6738 22.809 12.5375 23.757 13.7526C24.7049 14.9676 25.2199 16.4644 25.2202 18.0055C25.2202 19.5978 24.6438 20.8874 23.2028 20.8874C21.7619 20.8874 21.1855 19.5978 21.1855 18.0055V15.1235" stroke="white" stroke-linecap="round" stroke-linejoin="round"/>
</g>
</g>
</svg>
