<svg width="23" height="23" viewBox="0 0 23 23" fill="none" xmlns="http://www.w3.org/2000/svg">
<g id="Insta">
<path id="Vector" d="M16.4789 2.58696C17.7077 2.59049 18.8851 3.06178 19.754 3.8979C20.6229 4.73401 21.1127 5.86702 21.1164 7.04946V15.9735C21.1127 17.1559 20.6229 18.289 19.754 19.1251C18.8851 19.9612 17.7077 20.4325 16.4789 20.436H7.20502C5.97622 20.4325 4.7988 19.9612 3.9299 19.1251C3.06101 18.289 2.57124 17.1559 2.56757 15.9735V7.04946C2.57124 5.86702 3.06101 4.73401 3.9299 3.8979C4.7988 3.06178 5.97622 2.59049 7.20502 2.58696H16.4789V2.58696ZM16.4789 0.802246H7.20502C3.63427 0.802246 0.712891 3.61342 0.712891 7.04946V15.9735C0.712891 19.4095 3.63427 22.2207 7.20502 22.2207H16.4789C20.0497 22.2207 22.971 19.4095 22.971 15.9735V7.04946C22.971 3.61342 20.0497 0.802246 16.4789 0.802246V0.802246Z" fill="white"/>
<path id="Vector_2" d="M17.87 7.04987C17.5948 7.04987 17.3259 6.97136 17.0971 6.82426C16.8683 6.67717 16.69 6.4681 16.5847 6.22349C16.4794 5.97889 16.4519 5.70973 16.5056 5.45006C16.5592 5.19038 16.6917 4.95186 16.8863 4.76464C17.0808 4.57743 17.3287 4.44993 17.5986 4.39828C17.8684 4.34663 18.1481 4.37314 18.4023 4.47446C18.6565 4.57578 18.8738 4.74736 19.0267 4.9675C19.1795 5.18764 19.2611 5.44645 19.2611 5.71121C19.2615 5.88711 19.2258 6.06136 19.156 6.22394C19.0862 6.38653 18.9838 6.53425 18.8545 6.65863C18.7253 6.78301 18.5718 6.8816 18.4028 6.94874C18.2338 7.01588 18.0528 7.05025 17.87 7.04987V7.04987ZM11.8419 7.94199C12.5756 7.94199 13.2929 8.15136 13.903 8.54362C14.5131 8.93589 14.9886 9.49343 15.2693 10.1457C15.5501 10.7981 15.6236 11.5159 15.4805 12.2083C15.3373 12.9008 14.984 13.5369 14.4651 14.0362C13.9463 14.5355 13.2853 14.8755 12.5656 15.0132C11.846 15.1509 11.1001 15.0803 10.4222 14.8101C9.7443 14.5399 9.1649 14.0823 8.75725 13.4952C8.34961 12.9082 8.13203 12.218 8.13203 11.5119C8.13308 10.5654 8.52428 9.65797 9.21978 8.98871C9.91529 8.31944 10.8583 7.943 11.8419 7.94199V7.94199ZM11.8419 6.15727C10.7413 6.15727 9.66548 6.47132 8.75039 7.05969C7.83531 7.64806 7.12209 8.48434 6.70092 9.46277C6.27975 10.4412 6.16956 11.5178 6.38427 12.5565C6.59898 13.5952 7.12895 14.5493 7.90716 15.2982C8.68538 16.047 9.67688 16.557 10.7563 16.7636C11.8357 16.9702 12.9546 16.8642 13.9713 16.4589C14.9881 16.0536 15.8572 15.3673 16.4686 14.4868C17.0801 13.6062 17.4064 12.5709 17.4064 11.5119C17.4064 10.0918 16.8202 8.72979 15.7766 7.7256C14.7331 6.72142 13.3177 6.15727 11.8419 6.15727V6.15727Z" fill="white"/>
</g>
</svg>
