<svg width="23" height="19" viewBox="0 0 23 19" fill="none" xmlns="http://www.w3.org/2000/svg">
<g id="Twiter">
<path id="Vector" d="M22.4418 2.96303C21.6364 3.31274 20.7842 3.54313 19.9122 3.64693C20.8286 3.11071 21.5178 2.25882 21.8504 1.25104C20.984 1.7573 20.0377 2.11252 19.052 2.30148C18.637 1.86679 18.1378 1.52098 17.5848 1.28508C17.0318 1.04917 16.4366 0.928096 15.8354 0.929207C13.4011 0.929207 11.4311 2.86916 11.4311 5.26058C11.4294 5.59322 11.4676 5.92486 11.5448 6.24844C9.79919 6.16666 8.08994 5.72169 6.52633 4.94199C4.96273 4.16228 3.57921 3.06502 2.46428 1.72039C2.07314 2.37931 1.86628 3.13112 1.86533 3.89725C1.86533 5.39915 2.64947 6.72672 3.83351 7.50449C3.132 7.48785 2.44487 7.30231 1.83044 6.96363V7.01727C1.83044 9.11814 3.35131 10.8659 5.36422 11.2637C4.98569 11.3645 4.59563 11.4156 4.20389 11.4157C3.92592 11.4162 3.64858 11.3892 3.37591 11.3352C3.9355 13.0562 5.56417 14.3077 7.49343 14.3435C5.92577 15.5508 4.00108 16.2033 2.02189 16.1985C1.67058 16.198 1.31959 16.1771 0.970703 16.1359C2.98414 17.4207 5.32461 18.1003 7.71351 18.0938C15.826 18.0938 20.258 11.4917 20.258 5.76568C20.258 5.57794 20.2531 5.39021 20.2441 5.20694C21.1043 4.59548 21.8485 3.83561 22.4418 2.96303V2.96303Z" fill="white"/>
</g>
</svg>
