<svg width="16" height="16" viewBox="0 0 16 16" fill="none" xmlns="http://www.w3.org/2000/svg">
<path id="Vector" d="M15.685 12.1689C15.5072 11.9796 14.8796 11.4198 13.7258 10.6791C12.5636 9.93194 11.7064 9.46608 11.4606 9.35745C11.4389 9.34784 11.415 9.34432 11.3915 9.34726C11.368 9.3502 11.3457 9.35949 11.3271 9.37414C10.931 9.68301 10.2642 10.2503 10.2285 10.281C9.9976 10.4788 9.9976 10.4788 9.8086 10.4172C9.47623 10.3082 8.44371 9.75997 7.544 8.85822C6.64429 7.95647 6.06775 6.89842 5.95878 6.56639C5.89646 6.37705 5.89646 6.37705 6.09499 6.14617C6.12564 6.11041 6.69332 5.44364 7.0022 5.04793C7.01684 5.0293 7.02614 5.00702 7.02908 4.9835C7.03202 4.95998 7.02849 4.93611 7.01888 4.91444C6.91025 4.66823 6.44439 3.81143 5.69724 2.64917C4.95554 1.49577 4.39637 0.868154 4.20703 0.690393C4.18965 0.673997 4.16818 0.662591 4.14487 0.657377C4.12155 0.652163 4.09726 0.653333 4.07456 0.660766C3.41271 0.888207 2.77412 1.17842 2.16753 1.52744C1.58194 1.86785 1.02754 2.25929 0.510791 2.69719C0.492753 2.71252 0.479229 2.73248 0.47167 2.75492C0.464111 2.77735 0.462802 2.80143 0.467883 2.82455C0.539056 3.15624 0.879257 4.54087 1.93494 6.45878C3.01207 8.4162 3.75854 9.41909 5.34035 10.9954C6.92217 12.5718 7.95673 13.3632 9.91621 14.4403C11.8341 15.496 13.2195 15.8365 13.5505 15.907C13.5736 15.9121 13.5978 15.9107 13.6202 15.9032C13.6427 15.8956 13.6627 15.8821 13.6782 15.8641C14.116 15.3474 14.5073 14.793 14.8476 14.2074C15.1965 13.6008 15.4868 12.9622 15.7143 12.3004C15.7215 12.2779 15.7227 12.2538 15.7175 12.2307C15.7124 12.2076 15.7011 12.1863 15.685 12.1689V12.1689Z" fill="#0152A8"/>
</svg>
