<svg width="19" height="15" viewBox="0 0 19 15" fill="none" xmlns="http://www.w3.org/2000/svg">
<path id="Vector" d="M16.1428 0.843689H2.97491C2.39305 0.844293 1.8352 1.0687 1.42376 1.46767C1.01232 1.86664 0.780896 2.40759 0.780273 2.97183V12.0924C0.780896 12.6566 1.01232 13.1976 1.42376 13.5966C1.8352 13.9955 2.39305 14.2199 2.97491 14.2205H16.1428C16.7246 14.2199 17.2825 13.9955 17.6939 13.5966C18.1054 13.1976 18.3368 12.6566 18.3374 12.0924V2.97183C18.3368 2.40759 18.1054 1.86664 17.6939 1.46767C17.2825 1.0687 16.7246 0.844293 16.1428 0.843689V0.843689ZM15.587 4.36386L9.94368 8.62013C9.83364 8.70309 9.69822 8.74812 9.55884 8.74812C9.41945 8.74812 9.28404 8.70309 9.17399 8.62013L3.53063 4.36386C3.46432 4.3153 3.40863 4.25445 3.36679 4.18485C3.32495 4.11524 3.29779 4.03827 3.28689 3.95839C3.27599 3.87852 3.28157 3.79734 3.3033 3.71958C3.32504 3.64182 3.36249 3.56902 3.41349 3.50541C3.46449 3.44181 3.52802 3.38866 3.60038 3.34907C3.67274 3.30948 3.7525 3.28423 3.83501 3.27478C3.91753 3.26534 4.00115 3.27189 4.08103 3.29406C4.16091 3.31623 4.23545 3.35357 4.30032 3.40391L9.55884 7.36985L14.8174 3.40391C14.9488 3.30762 15.1141 3.26539 15.2775 3.28635C15.4408 3.30731 15.5891 3.38978 15.6903 3.51592C15.7914 3.64205 15.8373 3.80173 15.818 3.96041C15.7986 4.11908 15.7157 4.26402 15.587 4.36386Z" fill="#0152A8"/>
</svg>
